<?xml version="1.0" encoding="UTF-8" standalone="no"?>
<!-- Created with Inkscape (http://www.inkscape.org/) -->

<svg
   width="22.577778mm"
   height="11.055008mm"
   viewBox="0 0 22.577778 11.055008"
   version="1.1"
   id="svg5"
   xml:space="preserve"
   xmlns:inkscape="http://www.inkscape.org/namespaces/inkscape"
   xmlns:sodipodi="http://sodipodi.sourceforge.net/DTD/sodipodi-0.dtd"
   xmlns="http://www.w3.org/2000/svg"
   xmlns:svg="http://www.w3.org/2000/svg"><sodipodi:namedview
     id="namedview7"
     pagecolor="#ffffff"
     bordercolor="#666666"
     borderopacity="1.0"
     inkscape:showpageshadow="2"
     inkscape:pageopacity="0.0"
     inkscape:pagecheckerboard="0"
     inkscape:deskcolor="#d1d1d1"
     inkscape:document-units="mm"
     showgrid="false" /><defs
     id="defs2" /><g
     inkscape:label="Camada 1"
     inkscape:groupmode="layer"
     id="layer1"
     transform="translate(15.064313,-209.67166)"><path
       d="m -5.327646,209.96694 c -1.5522223,0.56444 -9.736667,8.39611 -9.736667,9.34861 0,0.70555 0.705556,1.41111 1.375834,1.41111 0.3175,0 2.398888,-1.86972 4.6919441,-4.1275 3.4925,-3.4925 4.2686112,-4.09222 5.2211112,-4.09222 0.9525,0 1.728611,0.59972 5.221111,4.09222 2.293056,2.25778 4.374444,4.1275 4.691944,4.1275 0.670278,0 1.375834,-0.70556 1.375834,-1.41111 0,-0.59973 -7.86694503,-8.53723 -8.995834,-9.10167 -1.375833,-0.635 -2.469444,-0.70556 -3.8452773,-0.24694 z"
       id="path26"
       style="fill:#ffffff;stroke:none;stroke-width:0.0352778"
       inkscape:export-filename="path26.svg"
       inkscape:export-xdpi="98.4666"
       inkscape:export-ydpi="98.4666" /></g></svg>
